<svg xmlns="http://www.w3.org/2000/svg" aria-hidden="true" style="position:absolute;width:0;height:0;overflow:hidden">
    <defs>
        <symbol id="icon-envelope" viewBox="0 0 39 32">
            <path d="M35.692 2.433h-32A3.696 3.696 0 0 0 0 6.124V28.27a3.696 3.696 0 0 0 3.692 3.691h32a3.696 3.696 0 0 0 3.692-3.691V6.124a3.696 3.696 0 0 0-3.692-3.691zm0 2.461c.167 0 .326.035.472.095L19.692 19.26 3.22 4.989c.145-.06.305-.095.472-.095h32zm0 24.607h-32a1.231 1.231 0 0 1-1.231-1.23V7.589l16.424 14.23a1.23 1.23 0 0 0 1.612 0L36.921 7.59v20.682c0 .679-.552 1.23-1.231 1.23z"/>
        </symbol>
 

        <symbol id="icon-smartphone" viewBox="0 0 19 32">
            <path d="M16 1.862H2.824A2.827 2.827 0 0 0 0 4.685v24.462a2.826 2.826 0 0 0 2.824 2.822H16a2.826 2.826 0 0 0 2.824-2.822V4.685A2.827 2.827 0 0 0 16 1.862zM2.824 3.743H16c.519 0 .941.422.941.941v19.758H1.882V4.684c0-.519.422-.941.941-.941zM16 30.087H2.824a.942.942 0 0 1-.941-.941v-2.823h15.059v2.823a.942.942 0 0 1-.941.941z"/>
            <path d="M4.43 27.714c.368.343.368.9 0 1.243s-.963.343-1.331 0-.368-.9 0-1.243.963-.343 1.331 0z" />
        </symbol>
    </defs> 
</svg>