
<svg style="display: none;" xmlns="http://www.w3.org/2000/svg" style="position:absolute;width:0;height:0;overflow:hidden">
<defs>
    <symbol id="icon-envelope" viewBox="0 0 43 32">
        <path fill="#757575" class="envelope" style="fill: var(--color1, #757575)" d="M38.667 0h-34.667c-2.206 0-4 1.794-4 4v24c0 2.206 1.794 4 4 4h34.667c2.206 0 4-1.794 4-4v-24c0-2.206-1.794-4-4-4zM38.667 2.667c0.181 0 0.353 0.038 0.511 0.103l-17.844 15.466-17.844-15.466c0.158-0.066 0.33-0.103 0.511-0.103h34.667zM38.667 29.333h-34.667c-0.736 0-1.333-0.598-1.333-1.333v-22.413l17.793 15.421c0.251 0.217 0.563 0.326 0.874 0.326s0.622-0.108 0.874-0.326l17.793-15.421v22.413c0 0.736-0.598 1.333-1.333 1.333z"></path>
    </symbol> 
    
    <symbol id="icon-smartphone" viewBox="0 0 19 32">
        <path fill="#757575" style="fill: var(--color1, #757575)" d="M16 1.862h-13.176c-1.557 0-2.824 1.266-2.824 2.823v24.462c0 1.556 1.267 2.822 2.824 2.822h13.176c1.557 0 2.824-1.266 2.824-2.822v-24.462c0-1.556-1.267-2.823-2.824-2.823zM2.824 3.743h13.176c0.519 0 0.941 0.422 0.941 0.941v19.758h-15.059v-19.758c0-0.519 0.422-0.941 0.941-0.941zM16 30.087h-13.176c-0.519 0-0.941-0.422-0.941-0.941v-2.823h15.059v2.823c0 0.519-0.422 0.941-0.941 0.941z"></path>
        <path fill="#757575" style="fill: var(--color1, #757575)" d="M4.43 27.714c0.368 0.343 0.368 0.9 0 1.243s-0.963 0.343-1.331 0c-0.368-0.343-0.368-0.9 0-1.243s0.963-0.343 1.331 0z"></path>
    </symbol> 
</defs>
</svg>